<?xml version="1.0" encoding="utf-8"?>
<!-- Generator: Adobe Illustrator 27.4.1, SVG Export Plug-In . SVG Version: 6.00 Build 0)  -->
<svg version="1.1" id="Layer_2_00000082370503553497390020000015918763672727859086_"
	 xmlns="http://www.w3.org/2000/svg" xmlns:xlink="http://www.w3.org/1999/xlink" x="0px" y="0px" viewBox="0 0 5554 260.3"
	 style="enable-background:new 0 0 5554 260.3;" xml:space="preserve">
<g id="Layer_1-2_00000007412474477807949640000001399302145980592305_">
	<g id="Layer_1-2">
		<path d="M2198.6,5.7c-5.9-0.2-12.1,0.8-17.9,3.4c-8.6,3.8-19.1,19.7-23.1,35.2c-7.6,29.2-31.4,150.5-32.6,166.4
			c-1.8,23.9,2.4,36.5,14.1,41.7c4.3,2,10.6,2.9,13.9,2.1c17.6-4.3,36.8-20.7,45.6-38.8c3.1-6.5,10.8-33.1,23.6-42.6
			c15-11.3,39.9-23.6,54.4-11.5c12.4,10.2,1.9,43.6,1.5,49.2c-1.8,23.9,2.4,36.5,14.1,41.7c4.3,2,10.6,2.9,13.9,2.1
			c17.7-4.3,36.9-20.7,45.6-38.8c10.4-21.6,40.1-162.8,37.4-178c-4.4-24.7-31.8-38.9-55.3-28.6c-8.6,3.8-19.1,19.7-23.1,35.2
			c-1.9,7.3-12.9,29.7-25.5,37.3c-11.4,6.9-28.4,11.8-39.1,4.1c-14.6-10.4-11.5-31.7-14.3-53.5C2229.1,13.5,2216.4,6.4,2198.6,5.7
			L2198.6,5.7L2198.6,5.7z"/>
		<path d="M1412,247.9c-22-9.9-23.4-36.6-2.1-131.2c9.6-42.9,19.8-74.4,28.1-82.7c19.5-31.1,51.1-39.3,74.9,2.1
			c11.2,15.8,34.1,72.3,44.9,73.6c20.7,2.4,31.3-62.2,58.1-83.6c33.9-27.9,54.5,13.2,50.2,51.9c-2.8,23.7-7.6,49.1-13.1,69.5
			c-9.1,33.9-20.8,70.9-26,81.5c-26.2,39.7-58.8,22.3-65.6,0.4c-12.4-31.4-55.1-84.3-79-70.5C1449.5,172.3,1457.1,266.4,1412,247.9
			L1412,247.9L1412,247.9z"/>
		<path d="M1965.9,250.8c-25.1-4-45.5-19.9-48.8-38c-3.1-17.2,8.2-27.1,40.6-35.6c23.5-6.2,30.9-11.8,30.9-23.8
			c0-6.3-2.6-11.2-12-22c-21.4-24.7-25.6-43-15.1-66.5c11.7-26.2,34.7-44.8,66.2-53.3c17.5-4.7,32-4.7,48,0.2
			c27,8.2,39.8,20.6,39.8,38.4c0,16.1-11.6,23.9-35.6,24c-10.4,0-13.8,2.4-13.8,10c0,1.2,5.2,8.2,11.5,15.5
			c6.3,7.3,14.6,18.6,18.2,25.1c5.9,10.6,6.7,14.2,6.7,32.8c0,26.1-5.3,39.2-22.9,57.1C2052.3,242.7,2006.4,257.3,1965.9,250.8
			L1965.9,250.8L1965.9,250.8z"/>
		<path d="M1900.4,59.3c31.9,51.7,10.4,125.3-48,164.5c-58.4,39.2-131.5,29.1-163.4-22.6c-31.9-51.6-10.4-125.3,48-164.4
			S1868.5,7.6,1900.4,59.3L1900.4,59.3L1900.4,59.3z"/>
		<path d="M2477.4,3.3c-5.9-0.2-12.1,0.8-17.9,3.4c-8.6,3.8-19.1,19.7-23.1,35.2c-7.6,29.2-31.4,150.5-32.6,166.4
			c-1.8,23.8,2.4,36.3,13.9,41.6c6.2,3.9,15.1,6.1,27.5,6.9c15.2,1.1,72.1-0.7,100.9-4.4c15.3-1.9,31.9-10.4,36.8-18.8
			c13.2-22.7,3.8-53.1-19.1-61.2c-9.1-3.2-73.4,22-82.9-1.2c-13-11,32.2-96.4,29.1-137.3C2508.6,15.2,2495.3,4.1,2477.4,3.3
			L2477.4,3.3L2477.4,3.3z"/>
		<path d="M2588.9,0c-9.2,0.2-19.1,5-28.2,18.6c-25,50.9,89.8,99,87.5,129.5c6,11.6-36.3,57.7-39.5,64.4c-6.7,17.5-12.7,43.1,10,47
			c16.8,2.5,34.5,1.2,66.3-35.7c33.3-41.8,38.2-51.1,70.4-117.1c28.1-63.5,14.4-101-5.2-102.1c-32.6-2.8-35.9,45.8-60.4,62.5
			c-30,12.2-45.8-20.3-68-49C2617.3,12.2,2604.1-0.3,2588.9,0L2588.9,0L2588.9,0z"/>
	</g>
	<g id="Layer_1-2-2">
		<path d="M803.9,5.7c-6-0.2-12.1,0.8-17.9,3.4c-8.6,3.8-19.1,19.7-23.1,35.2c-7.7,29.2-31.4,150.5-32.6,166.4
			c-1.8,23.9,2.4,36.5,14.1,41.7c4.3,2,10.6,2.9,13.9,2.1c17.6-4.3,36.8-20.7,45.6-38.8c3.2-6.5,10.8-33.1,23.6-42.6
			c15-11.3,39.9-23.6,54.4-11.5c12.3,10.2,1.9,43.6,1.5,49.2c-1.8,23.9,2.4,36.5,14.1,41.7c4.3,2,10.6,2.9,13.9,2.1
			c17.7-4.3,36.9-20.7,45.6-38.8c10.5-21.6,40.1-162.8,37.4-178C989.9,12.9,962.4-1.3,939,9c-8.6,3.8-19.1,19.7-23.1,35.2
			c-1.9,7.3-12.9,29.7-25.5,37.3c-11.4,6.9-28.3,11.8-39.1,4.1c-14.7-10.4-11.5-31.7-14.3-53.5C834.5,13.5,821.7,6.4,803.9,5.7
			L803.9,5.7L803.9,5.7z"/>
		<path d="M17.3,247.9c-22-9.9-23.4-36.6-2.1-131.2C24.8,73.7,35,42.2,43.3,33.9c19.5-31.1,51-39.3,74.9,2.1
			c11.2,15.8,34.1,72.3,44.9,73.6c20.7,2.4,31.3-62.2,58.1-83.6c33.9-27.9,54.5,13.2,50.2,51.9c-2.8,23.7-7.6,49.1-13.1,69.5
			c-9.1,33.9-20.8,70.9-26,81.5c-26.1,39.7-58.8,22.3-65.6,0.4c-12.4-31.4-55.1-84.3-79-70.5C54.8,172.3,62.4,266.4,17.3,247.9
			L17.3,247.9L17.3,247.9z"/>
		<path d="M571.2,250.8c-25.1-4-45.5-19.9-48.8-38c-3.1-17.2,8.2-27.1,40.6-35.6c23.5-6.2,30.9-11.8,30.9-23.8c0-6.3-2.6-11.2-12-22
			c-21.5-24.7-25.6-43-15.1-66.5c11.7-26.2,34.7-44.8,66.2-53.3c17.5-4.7,32-4.7,48,0.2c27,8.2,39.8,20.6,39.8,38.4
			c0,16.1-11.6,23.9-35.6,24c-10.5,0-13.8,2.4-13.8,10c0,1.2,5.2,8.2,11.5,15.5c6.3,7.3,14.5,18.6,18.2,25.1
			c6,10.6,6.7,14.2,6.7,32.8c0,26.1-5.3,39.2-22.9,57.1C657.6,242.7,611.7,257.3,571.2,250.8L571.2,250.8L571.2,250.8z"/>
		<path d="M505.7,59.3c31.9,51.7,10.4,125.3-48,164.5c-58.4,39.2-131.5,29.1-163.4-22.6c-31.9-51.6-10.4-125.3,48-164.4
			S473.8,7.6,505.7,59.3C505.7,59.3,505.7,59.3,505.7,59.3z"/>
		<path d="M1082.8,3.3c-5.9-0.2-12.1,0.8-17.9,3.4c-8.6,3.8-19.1,19.7-23.1,35.2c-7.7,29.2-31.4,150.5-32.6,166.4
			c-1.8,23.8,2.4,36.3,13.9,41.6c6.2,3.9,15.1,6.1,27.5,6.9c15.2,1.1,72.1-0.7,100.9-4.4c15.3-1.9,31.9-10.4,36.8-18.8
			c13.2-22.7,3.8-53.1-19.1-61.2c-9.1-3.2-73.4,22-82.9-1.2c-13-11,32.2-96.4,29.1-137.3C1113.9,15.2,1100.6,4.1,1082.8,3.3
			L1082.8,3.3L1082.8,3.3z"/>
		<path d="M1194.2,0c-9.2,0.2-19.1,5-28.2,18.6c-25,50.9,89.8,99,87.5,129.5c6,11.6-36.3,57.7-39.5,64.4c-6.7,17.5-12.7,43.1,10,47
			c16.8,2.5,34.5,1.2,66.3-35.7c33.3-41.8,38.2-51.1,70.4-117.1c28.1-63.5,14.4-101-5.2-102.1c-32.7-2.8-35.9,45.8-60.3,62.5
			c-30,12.2-45.8-20.3-68-49C1222.7,12.2,1209.4-0.3,1194.2,0L1194.2,0L1194.2,0z"/>
	</g>
</g>
<g id="Layer_1-2_00000081614618753812211410000014018535177571276451_">
	<g id="Layer_1-2_00000140002644180844147970000015131907242592902795_">
		<path d="M4969.9,5.7c-5.9-0.2-12.1,0.8-17.9,3.4c-8.6,3.8-19.1,19.7-23.1,35.2c-7.6,29.2-31.4,150.5-32.6,166.4
			c-1.8,23.9,2.4,36.5,14.1,41.7c4.3,2,10.6,2.9,13.9,2.1c17.6-4.3,36.8-20.7,45.6-38.8c3.1-6.5,10.8-33.1,23.6-42.6
			c15-11.3,39.9-23.6,54.4-11.5c12.4,10.2,1.9,43.6,1.5,49.2c-1.8,23.9,2.4,36.5,14.1,41.7c4.3,2,10.6,2.9,13.9,2.1
			c17.7-4.3,36.9-20.7,45.6-38.8c10.5-21.6,40.1-162.8,37.4-178c-4.4-24.7-31.8-38.9-55.3-28.6c-8.6,3.8-19.1,19.7-23.1,35.2
			c-1.9,7.3-12.9,29.7-25.5,37.3c-11.4,6.9-28.4,11.8-39.1,4.1c-14.6-10.4-11.5-31.7-14.3-53.5C5000.5,13.5,4987.7,6.4,4969.9,5.7
			L4969.9,5.7L4969.9,5.7z"/>
		<path d="M4183.4,247.9c-22-9.9-23.4-36.6-2.1-131.2c9.6-42.9,19.8-74.4,28.1-82.7c19.5-31.1,51.1-39.3,74.9,2.1
			c11.2,15.8,34.1,72.3,44.9,73.6c20.7,2.4,31.3-62.2,58.1-83.6c33.9-27.9,54.5,13.2,50.2,51.9c-2.8,23.7-7.6,49.1-13.1,69.5
			c-9.1,33.9-20.8,70.9-26,81.5c-26.2,39.7-58.8,22.3-65.6,0.4c-12.5-31.4-55.1-84.3-79-70.5
			C4220.9,172.3,4228.5,266.4,4183.4,247.9L4183.4,247.9L4183.4,247.9z"/>
		<path d="M4737.3,250.8c-25.1-4-45.5-19.9-48.8-38c-3.1-17.2,8.1-27.1,40.6-35.6c23.5-6.2,30.9-11.8,30.9-23.8
			c0-6.3-2.6-11.2-12-22c-21.5-24.7-25.6-43-15.1-66.5c11.7-26.2,34.7-44.8,66.2-53.3c17.5-4.7,32-4.7,48,0.2
			c27,8.2,39.8,20.6,39.8,38.4c0,16.1-11.6,23.9-35.6,24c-10.5,0-13.8,2.4-13.8,10c0,1.2,5.2,8.2,11.5,15.5
			c6.3,7.3,14.5,18.6,18.2,25.1c5.9,10.6,6.7,14.2,6.7,32.8c0,26.1-5.3,39.2-22.9,57.1C4823.7,242.7,4777.8,257.3,4737.3,250.8
			L4737.3,250.8L4737.3,250.8z"/>
		<path d="M4671.8,59.3c31.9,51.7,10.4,125.3-48,164.5c-58.4,39.2-131.5,29.1-163.4-22.6c-31.9-51.6-10.4-125.3,48-164.4
			C4566.8-2.5,4639.9,7.6,4671.8,59.3L4671.8,59.3L4671.8,59.3z"/>
		<path d="M5248.8,3.3c-5.9-0.2-12.1,0.8-17.9,3.4c-8.6,3.8-19.1,19.7-23.1,35.2c-7.6,29.2-31.4,150.5-32.6,166.4
			c-1.8,23.8,2.4,36.3,13.9,41.6c6.2,3.9,15.1,6.1,27.5,6.9c15.2,1.1,72.1-0.7,100.9-4.4c15.3-1.9,31.9-10.4,36.8-18.8
			c13.2-22.7,3.8-53.1-19.1-61.2c-9.1-3.2-73.4,22-82.9-1.2c-13-11,32.2-96.4,29.1-137.3C5280,15.2,5266.7,4.1,5248.8,3.3
			L5248.8,3.3L5248.8,3.3z"/>
		<path d="M5360.2,0c-9.2,0.2-19.1,5-28.2,18.6c-25,50.9,89.8,99,87.5,129.5c6,11.6-36.3,57.7-39.5,64.4c-6.7,17.5-12.7,43.1,10,47
			c16.8,2.5,34.5,1.2,66.3-35.7c33.3-41.8,38.2-51.1,70.4-117.1c28.1-63.5,14.4-101-5.2-102.1c-32.6-2.8-35.9,45.8-60.4,62.5
			c-30,12.2-45.8-20.3-68-49C5388.7,12.2,5375.5-0.3,5360.2,0L5360.2,0L5360.2,0z"/>
	</g>
	<g id="Layer_1-2-2_00000093873817970291692530000016365404007803904649_">
		<path d="M3575.3,5.7c-6-0.2-12.1,0.8-17.9,3.4c-8.6,3.8-19.1,19.7-23.1,35.2c-7.7,29.2-31.4,150.5-32.6,166.4
			c-1.8,23.9,2.4,36.5,14.1,41.7c4.3,2,10.6,2.9,13.9,2.1c17.6-4.3,36.8-20.7,45.6-38.8c3.1-6.5,10.8-33.1,23.6-42.6
			c15-11.3,39.9-23.6,54.4-11.5c12.4,10.2,1.9,43.6,1.5,49.2c-1.8,23.9,2.4,36.5,14.1,41.7c4.3,2,10.6,2.9,13.9,2.1
			c17.7-4.3,36.9-20.7,45.6-38.8c10.4-21.6,40.1-162.8,37.4-178c-4.4-24.7-31.8-38.9-55.3-28.6c-8.6,3.8-19.1,19.7-23.1,35.2
			c-1.9,7.3-12.9,29.7-25.5,37.3c-11.4,6.9-28.3,11.8-39.1,4.1c-14.7-10.4-11.5-31.7-14.3-53.5C3605.9,13.5,3593.1,6.4,3575.3,5.7
			L3575.3,5.7L3575.3,5.7z"/>
		<path d="M2788.7,247.9c-22-9.9-23.4-36.6-2.1-131.2c9.6-42.9,19.8-74.4,28.1-82.7c19.5-31.1,51.1-39.3,74.9,2.1
			c11.2,15.8,34.1,72.3,44.9,73.6c20.7,2.4,31.3-62.2,58.1-83.6c33.9-27.9,54.5,13.2,50.2,51.9c-2.8,23.7-7.6,49.1-13.1,69.5
			c-9.1,33.9-20.8,70.9-26,81.5c-26.2,39.7-58.8,22.3-65.6,0.4c-12.4-31.4-55.1-84.3-79-70.5
			C2826.2,172.3,2833.8,266.4,2788.7,247.9L2788.7,247.9L2788.7,247.9z"/>
		<path d="M3342.6,250.8c-25.1-4-45.5-19.9-48.8-38c-3.1-17.2,8.2-27.1,40.6-35.6c23.5-6.2,30.9-11.8,30.9-23.8
			c0-6.3-2.6-11.2-12-22c-21.4-24.7-25.6-43-15.1-66.5c11.7-26.2,34.7-44.8,66.2-53.3c17.5-4.7,32-4.7,48,0.2
			c27,8.2,39.8,20.6,39.8,38.4c0,16.1-11.6,23.9-35.6,24c-10.4,0-13.8,2.4-13.8,10c0,1.2,5.2,8.2,11.5,15.5
			c6.3,7.3,14.6,18.6,18.2,25.1c6,10.6,6.7,14.2,6.7,32.8c0,26.1-5.3,39.2-22.9,57.1C3429,242.7,3383.1,257.3,3342.6,250.8
			L3342.6,250.8L3342.6,250.8z"/>
		<path d="M3277.1,59.3c31.9,51.7,10.4,125.3-48,164.5c-58.4,39.2-131.5,29.1-163.4-22.6c-31.9-51.6-10.4-125.3,48-164.4
			S3245.2,7.6,3277.1,59.3C3277.1,59.3,3277.1,59.3,3277.1,59.3z"/>
		<path d="M3854.2,3.3c-5.9-0.2-12.1,0.8-17.9,3.4c-8.6,3.8-19.1,19.7-23.1,35.2c-7.6,29.2-31.4,150.5-32.6,166.4
			c-1.8,23.8,2.4,36.3,13.9,41.6c6.2,3.9,15.1,6.1,27.5,6.9c15.2,1.1,72.1-0.7,100.9-4.4c15.3-1.9,31.9-10.4,36.8-18.8
			c13.2-22.7,3.8-53.1-19.1-61.2c-9.1-3.2-73.4,22-82.9-1.2c-13-11,32.2-96.4,29.1-137.3C3885.3,15.2,3872,4.1,3854.2,3.3
			L3854.2,3.3L3854.2,3.3z"/>
		<path d="M3965.6,0c-9.2,0.2-19.1,5-28.2,18.6c-25,50.9,89.8,99,87.5,129.5c6,11.6-36.3,57.7-39.5,64.4c-6.7,17.5-12.7,43.1,10,47
			c16.8,2.5,34.5,1.2,66.3-35.7c33.3-41.8,38.2-51.1,70.4-117.1c28.1-63.5,14.4-101-5.2-102.1c-32.6-2.8-35.9,45.8-60.3,62.5
			c-30,12.2-45.8-20.3-68-49C3994.1,12.2,3980.8-0.3,3965.6,0L3965.6,0L3965.6,0z"/>
	</g>
</g>
</svg>
