<?xml version="1.0" encoding="UTF-8"?><svg id="Layer_2" xmlns="http://www.w3.org/2000/svg" viewBox="0 0 1800 1005.6"><defs><style>.cls-1{fill:#fffdf7;}</style></defs><g id="Layer_1-2"><path class="cls-1" d="m1795.34,905.05c.55-1.15,2.25-3.47,4.66-6.56v-100.11c-30.62-25.73-68.09-55.95-52.69-87.28,9.17-13.57,19.05-18.37,28.21-18.57l-.03-.03c9.47-.19,18.17,4.55,24.51,9.61v-32.47c-7.13-6.62-9.61-18.5-8.16-37.83.44-5.58,10.86-39.01-1.49-49.19-14.48-12.01-39.34.24-54.37,11.54-12.75,9.57-20.43,36.1-23.58,42.63-8.8,18.17-28.01,34.54-45.64,38.84-3.32.81-9.57-.14-13.9-2.1-11.67-5.24-15.9-17.76-14.11-41.71,1.18-15.83,24.97-137.15,32.61-166.38,4.06-15.53,14.51-31.46,23.14-35.25,5.85-2.57,11.98-3.62,17.93-3.38h-.03c17.83.78,30.62,7.85,33.02,26.56,2.81,21.72-.34,43,14.31,53.45,10.79,7.71,27.77,2.81,39.14-4.06.38-.23.75-.47,1.12-.72v-96.37c-17.9-6.16-12.28-29.57-5.99-45.97.65-1.36,2.88-4.31,5.99-8.26v-97.29c-30.85-25.97-69.64-56.62-54.02-88.4,9.17-13.57,19.05-18.37,28.21-18.57l-.03-.03c10.16-.2,19.42,5.26,25.84,10.7V0H0v154.22c12.06,2.94,20.32,10.45,22.2,25.11,2.81,21.72-.34,43,14.31,53.45,10.79,7.71,27.77,2.81,39.14-4.06,12.69-7.65,23.61-29.97,25.54-37.31,4.06-15.53,14.51-31.46,23.14-35.25,23.44-10.35,50.88,3.86,55.28,28.59,2.71,15.22-26.93,156.4-37.38,178.01-8.76,18.17-27.98,34.54-45.64,38.84-3.32.81-9.57-.14-13.9-2.1-11.64-5.24-15.87-17.76-14.07-41.71.44-5.58,10.86-39.01-1.49-49.19-14.48-12.01-39.34.24-54.36,11.54-5.03,3.78-9.27,10.2-12.76,16.99v120.03c7.83,6.46,14.69,14.24,20.28,23.29v-.03c26.17,42.42,16.38,99.66-20.28,140.47v78.28c13.14,2.59,22.21,10.09,24.19,25.54,2.81,21.72-.34,43,14.31,53.45,10.79,7.71,27.77,2.81,39.14-4.06,12.69-7.65,23.61-29.97,25.54-37.31,4.06-15.53,14.51-31.46,23.14-35.25,23.44-10.35,50.88,3.86,55.28,28.59,2.71,15.22-26.93,156.4-37.38,178.01-8.76,18.17-27.98,34.54-45.64,38.84-3.32.81-9.57-.14-13.9-2.1-11.64-5.24-15.87-17.76-14.07-41.71.44-5.58,10.86-39.01-1.49-49.19-14.48-12.01-39.34.24-54.36,11.54-6.04,4.53-10.93,12.86-14.76,21.07v119.04h1800v-55.1c-16.27-6.85-10.79-29.48-4.66-45.45Zm-206.21-549.63c1.18-15.83,24.93-137.15,32.58-166.38,4.06-15.53,14.51-31.46,23.14-35.25,5.85-2.57,11.98-3.62,17.93-3.38h.03c17.79.78,31.09,11.87,32.48,30.68,3.04,40.87-42.15,126.25-29.13,137.28,9.47,23.21,73.78-2.03,82.92,1.22,22.84,8.12,32.31,38.53,19.08,61.23-4.87,8.36-21.48,16.85-36.77,18.78-28.79,3.65-85.69,5.45-100.88,4.36-12.42-.88-21.35-3.08-27.5-6.94-11.47-5.31-15.66-17.83-13.87-41.61Zm2.56,165.39c6.33,7.27,14.55,18.61,18.23,25.14,5.95,10.59,6.7,14.21,6.66,32.75-.03,26.08-5.31,39.21-22.9,57.14-27.54,28.01-73.41,42.59-113.84,36.13l-.07-.03c-25.14-4.03-45.47-19.89-48.75-37.99-3.08-17.25,8.15-27.06,40.63-35.56,23.51-6.16,30.89-11.84,30.89-23.78,0-6.33-2.64-11.16-11.98-21.96-21.45-24.7-25.61-43.03-15.12-66.51,11.71-26.25,34.71-44.79,66.24-53.35,17.46-4.74,32-4.67,48.04.2,26.96,8.22,39.82,20.6,39.82,38.36,0,16.1-11.6,23.92-35.59,23.95-10.45,0-13.77,2.44-13.77,10.01,0,1.22,5.18,8.19,11.5,15.49Zm-281.49-163.02c1.18-15.83,24.97-137.15,32.61-166.38,4.06-15.53,14.51-31.46,23.14-35.25,5.85-2.57,11.98-3.62,17.93-3.38h-.03c17.83.78,30.62,7.85,33.02,26.56,2.81,21.72-.34,43,14.31,53.45,10.79,7.71,27.77,2.81,39.14-4.06,12.69-7.65,23.61-29.97,25.54-37.31,4.06-15.53,14.51-31.46,23.14-35.25,23.44-10.35,50.88,3.86,55.28,28.59,2.71,15.22-26.93,156.4-37.38,178.01-8.76,18.17-27.98,34.54-45.64,38.84-3.32.81-9.57-.14-13.9-2.1-11.64-5.24-15.87-17.76-14.07-41.71.44-5.58,10.86-39.01-1.49-49.19-14.48-12.01-39.34.24-54.37,11.54-12.75,9.57-20.43,36.1-23.58,42.63-8.8,18.17-28.01,34.54-45.64,38.84-3.32.81-9.57-.14-13.9-2.1-11.67-5.24-15.9-17.76-14.11-41.71Zm56.12,287.11c-58.39,39.18-131.53,29.06-163.43-22.6-31.87-51.62-10.42-125.27,47.97-164.45,58.39-39.18,131.53-29.06,163.43,22.6v-.03c31.87,51.66,10.42,125.31-47.97,164.48Zm-223.2-320.53c23.51-6.16,30.89-11.84,30.89-23.78,0-6.33-2.64-11.16-11.98-21.96-21.45-24.7-25.61-43.03-15.12-66.51,11.71-26.25,34.71-44.79,66.24-53.35,17.46-4.74,32-4.67,48.04.2,26.96,8.22,39.82,20.6,39.82,38.36,0,16.1-11.6,23.92-35.59,23.95-10.45,0-13.77,2.44-13.77,10.01,0,1.22,5.18,8.19,11.5,15.49,6.33,7.27,14.55,18.61,18.23,25.14,5.95,10.59,6.7,14.21,6.66,32.75-.03,26.08-5.31,39.21-22.9,57.14-27.54,28.01-73.41,42.59-113.84,36.13l-.07-.03c-25.14-4.03-45.47-19.89-48.75-37.99-3.08-17.25,8.15-27.06,40.63-35.56Zm-217.26,344.62c-21.96-9.95-23.38-36.64-2.1-131.23,9.64-42.9,19.76-74.43,28.08-82.71,19.52-31.12,51.05-39.31,74.93,2.13,11.16,15.83,34.07,72.33,44.93,73.58,20.67,2.4,31.33-62.15,58.12-83.56,33.86-27.94,54.53,13.23,50.17,51.9-2.81,23.68-7.61,49.09-13.06,69.55-9.07,33.9-20.84,70.87-25.98,81.46-26.15,39.68-58.83,22.26-65.6.44-12.45-31.43-55.11-84.34-79.03-70.5-32.92,13.36-25.37,107.44-70.5,88.91l.03.03Zm-3.54-485.15c58.39-39.18,131.53-29.06,163.43,22.6v-.03c31.87,51.66,10.42,125.31-47.97,164.48-58.39,39.18-131.53,29.06-163.43-22.6-31.87-51.62-10.42-125.27,47.97-164.45Zm-154.28,385.42c2.23-30.51-112.55-78.55-87.52-129.5,9.17-13.57,19.05-18.37,28.21-18.57l-.03-.03c15.26-.3,28.52,12.18,33.12,18.17,22.19,28.72,37.96,61.23,67.96,49.05,24.43-16.75,27.71-65.36,60.35-62.55,19.59,1.15,33.29,38.6,5.18,102.13-32.21,66-37.11,75.24-70.43,117.05-31.83,36.91-49.56,38.16-66.31,35.69-22.7-3.92-16.75-29.47-10.01-46.99,3.21-6.73,45.5-52.88,39.48-64.45Zm-172.82-305.51c9.64-42.9,19.76-74.43,28.08-82.71,19.52-31.12,51.05-39.31,74.93,2.13,11.16,15.83,34.07,72.33,44.93,73.58,20.67,2.4,31.33-62.15,58.12-83.56,33.86-27.94,54.53,13.23,50.17,51.9-2.81,23.68-7.61,49.09-13.06,69.55-9.07,33.9-20.84,70.87-25.98,81.46-26.15,39.68-58.83,22.26-65.6.44-12.45-31.43-55.11-84.34-79.03-70.5-32.92,13.36-25.37,107.44-70.5,88.91l.03.03c-21.96-9.95-23.38-36.64-2.1-131.23Zm-243.91-98.01c9.17-13.57,19.05-18.37,28.21-18.57l-.03-.03c15.26-.3,28.52,12.18,33.12,18.17,22.19,28.72,37.96,61.23,67.96,49.05,24.43-16.75,27.71-65.36,60.35-62.55,19.59,1.15,33.29,38.6,5.18,102.13-32.21,66-37.11,75.24-70.43,117.05-31.83,36.91-49.56,38.16-66.31,35.69-22.7-3.92-16.75-29.47-10.01-46.99,3.21-6.73,45.5-52.88,39.48-64.45,2.23-30.51-112.55-78.55-87.52-129.5Zm45.04,416.88c-14.48-12.01-39.34.24-54.37,11.54-12.75,9.57-20.43,36.1-23.58,42.63-8.8,18.17-28.01,34.54-45.64,38.84-3.32.81-9.57-.14-13.9-2.1-11.67-5.24-15.9-17.76-14.11-41.71,1.18-15.83,24.97-137.15,32.61-166.38,4.06-15.53,14.51-31.46,23.14-35.25,5.85-2.57,11.98-3.62,17.93-3.38h-.03c17.83.78,30.62,7.85,33.02,26.56,2.81,21.72-.34,43,14.31,53.45,10.79,7.71,27.77,2.81,39.14-4.06,12.69-7.65,23.61-29.97,25.54-37.31,4.06-15.53,14.51-31.46,23.14-35.25,23.44-10.35,50.88,3.86,55.28,28.59,2.71,15.22-26.93,156.4-37.38,178.01-8.76,18.17-27.98,34.54-45.64,38.84-3.32.81-9.57-.14-13.9-2.1-11.64-5.24-15.87-17.76-14.07-41.71.44-5.58,10.86-39.01-1.49-49.19Zm-201.88-227.19c1.18-15.83,24.93-137.15,32.58-166.38,4.06-15.53,14.51-31.46,23.14-35.25,5.85-2.57,11.98-3.62,17.93-3.38h.03c17.79.78,31.09,11.87,32.48,30.68,3.04,40.87-42.15,126.25-29.13,137.28,9.47,23.21,73.78-2.03,82.92,1.22,22.84,8.12,32.31,38.53,19.08,61.23-4.87,8.36-21.48,16.85-36.77,18.78-28.79,3.65-85.69,5.45-100.88,4.36-12.42-.88-21.35-3.08-27.5-6.94-11.47-5.31-15.66-17.83-13.87-41.61Zm-108.61,316.54l-.07-.03c-25.14-4.03-45.47-19.89-48.75-37.99-3.08-17.25,8.15-27.06,40.63-35.56,23.51-6.16,30.89-11.84,30.89-23.78,0-6.33-2.64-11.16-11.98-21.96-21.45-24.7-25.61-43.03-15.12-66.51,11.71-26.25,34.71-44.79,66.24-53.35,17.46-4.74,32-4.67,48.04.2,26.96,8.22,39.82,20.6,39.82,38.36,0,16.1-11.6,23.92-35.59,23.95-10.45,0-13.77,2.44-13.77,10.01,0,1.22,5.18,8.19,11.5,15.49,6.33,7.27,14.55,18.61,18.23,25.14,5.95,10.59,6.7,14.21,6.66,32.75-.03,26.08-5.31,39.21-22.9,57.14-27.54,28.01-73.41,42.59-113.84,36.13Zm289.64,254.24c-4.87,8.36-21.48,16.85-36.77,18.78-28.79,3.65-85.69,5.45-100.88,4.36-12.42-.88-21.35-3.08-27.5-6.94-11.47-5.31-15.66-17.83-13.87-41.61,1.18-15.83,24.93-137.15,32.58-166.38,4.06-15.53,14.51-31.46,23.14-35.25,5.85-2.57,11.98-3.62,17.93-3.38h.03c17.79.78,31.09,11.87,32.48,30.68,3.04,40.87-42.15,126.25-29.13,137.28,9.47,23.21,73.78-2.03,82.92,1.22,22.84,8.12,32.31,38.53,19.08,61.23Zm172.6-126.9c-32.21,66-37.11,75.24-70.43,117.05-31.83,36.91-49.56,38.16-66.31,35.69-22.7-3.92-16.75-29.47-10.01-46.99,3.21-6.73,45.5-52.88,39.48-64.45,2.23-30.51-112.55-78.55-87.52-129.5,9.17-13.57,19.05-18.37,28.21-18.57l-.03-.03c15.26-.3,28.52,12.18,33.12,18.17,22.19,28.72,37.96,61.23,67.96,49.05,24.43-16.75,27.71-65.36,60.35-62.55,19.59,1.15,33.29,38.6,5.18,102.13Zm16.96-121.32c-12.42-.88-21.35-3.08-27.5-6.94-11.47-5.31-15.66-17.83-13.87-41.61,1.18-15.83,24.93-137.15,32.58-166.38,4.06-15.53,14.51-31.46,23.14-35.25,5.85-2.57,11.98-3.62,17.93-3.38h.03c17.79.78,31.09,11.87,32.48,30.68,3.04,40.87-42.15,126.25-29.13,137.28,9.47,23.21,73.78-2.03,82.92,1.22,22.84,8.12,32.31,38.53,19.08,61.23-4.87,8.36-21.48,16.85-36.77,18.78-28.79,3.65-85.69,5.45-100.88,4.36Zm287.72,92.46c-2.81,23.68-7.61,49.09-13.06,69.55-9.07,33.9-20.84,70.87-25.98,81.46-26.15,39.68-58.83,22.26-65.6.44-12.45-31.43-55.11-84.34-79.03-70.5-32.92,13.36-25.37,107.44-70.5,88.91l.03.03c-21.96-9.95-23.38-36.64-2.1-131.23,9.64-42.9,19.76-74.43,28.08-82.71,19.52-31.12,51.05-39.31,74.93,2.13,11.16,15.83,34.07,72.33,44.93,73.58,20.67,2.4,31.33-62.15,58.12-83.56,33.86-27.94,54.53,13.23,50.17,51.9Zm186.34,145.81c-58.39,39.18-131.53,29.06-163.43-22.6-31.87-51.62-10.42-125.27,47.97-164.45,58.39-39.18,131.53-29.06,163.43,22.6v-.03c31.87,51.66,10.42,125.31-47.97,164.48Zm227.64-149.6c-10.45,0-13.77,2.44-13.77,10.01,0,1.22,5.18,8.19,11.5,15.49,6.33,7.27,14.55,18.61,18.23,25.14,5.95,10.59,6.7,14.21,6.66,32.75-.03,26.08-5.31,39.21-22.9,57.14-27.54,28.01-73.41,42.59-113.84,36.13l-.07-.03c-25.14-4.03-45.47-19.89-48.75-37.99-3.08-17.25,8.15-27.06,40.63-35.56,23.51-6.16,30.89-11.84,30.89-23.78,0-6.33-2.64-11.16-11.98-21.96-21.45-24.7-25.61-43.03-15.12-66.51,11.71-26.25,34.71-44.79,66.24-53.35,17.46-4.74,32-4.67,48.04.2,26.96,8.22,39.82,20.6,39.82,38.36,0,16.1-11.6,23.92-35.59,23.95Zm271.49,141.48c-8.76,18.17-27.98,34.54-45.64,38.84-3.32.81-9.57-.14-13.9-2.1-11.64-5.24-15.87-17.76-14.07-41.71.44-5.58,10.86-39.01-1.49-49.19-14.48-12.01-39.34.24-54.36,11.54-12.75,9.57-20.43,36.1-23.58,42.63-8.8,18.17-28.01,34.54-45.64,38.84-3.32.81-9.57-.14-13.9-2.1-11.67-5.24-15.9-17.76-14.11-41.71,1.18-15.83,24.97-137.15,32.61-166.38,4.06-15.53,14.51-31.46,23.14-35.25,5.85-2.57,11.98-3.62,17.93-3.38h-.03c17.83.78,30.62,7.85,33.02,26.56,2.81,21.72-.34,43,14.31,53.45,10.79,7.71,27.77,2.81,39.14-4.06,12.69-7.65,23.61-29.97,25.54-37.31,4.06-15.53,14.51-31.46,23.14-35.25,23.44-10.35,50.88,3.86,55.28,28.59,2.71,15.22-26.93,156.4-37.38,178.01Zm231.26,18.07c-4.87,8.36-21.48,16.85-36.77,18.78-28.79,3.65-85.69,5.45-100.88,4.36-12.42-.88-21.35-3.08-27.5-6.94-11.47-5.31-15.66-17.83-13.87-41.61,1.18-15.83,24.93-137.15,32.58-166.38,4.06-15.53,14.51-31.46,23.14-35.25,5.85-2.57,11.98-3.62,17.93-3.38h.03c17.79.78,31.09,11.87,32.48,30.68,3.04,40.87-42.15,126.25-29.13,137.28,9.47,23.21,73.78-2.03,82.92,1.22,22.84,8.12,32.31,38.53,19.08,61.23Z"/></g></svg>